<svg xmlns="http://www.w3.org/2000/svg"
  xmlns:xlink="http://www.w3.org/1999/xlink" style="display:none">
  <!-- Arrow Down -->
  <symbol id="arrow-down" fill="none" viewBox="0 0 24 24" stroke-width="1.5" stroke="currentColor" class="size-6">
    <path stroke-linecap="round" stroke-linejoin="round" d="m19.5 8.25-7.5 7.5-7.5-7.5" />
  </symbol>

  <symbol id="arrow-right" fill="none" viewBox="0 0 24 24" stroke-width="1.5" stroke="currentColor" class="size-6">
    <path stroke-linecap="round" stroke-linejoin="round" d="m8.25 4.5 7.5 7.5-7.5 7.5" />
  </symbol>

  <symbol id="arrow-top" fill="none" viewBox="0 0 24 24" stroke-width="1.5" stroke="currentColor" class="size-6">
    <path stroke-linecap="round" stroke-linejoin="round" d="m4.5 15.75 7.5-7.5 7.5 7.5" />
  </symbol>

  <!-- Icon Search -->
  <symbol id="search-glas" viewBox="0 0 512 512">
    <path d="M416 208c0 45.9-14.9 88.3-40 122.7L502.6 457.4c12.5 12.5 12.5 32.8 0 45.3s-32.8 12.5-45.3 0L330.7 376c-34.4 25.2-76.8 40-122.7 40C93.1 416 0 322.9 0 208S93.1 0 208 0S416 93.1 416 208zM208 352a144 144 0 1 0 0-288 144 144 0 1 0 0 288z"/>
  </symbol>

  <!-- Whatsapp -->
  <symbol id="whatsapp-float" version="1.1" viewBox="0 0 127.78559 127.80237" sodipodi:docname="INKA -- WEBSITE_DR EDUARDO FLORES.pdf"
    xmlns:inkscape="http://www.inkscape.org/namespaces/inkscape"
    xmlns:sodipodi="http://sodipodi.sourceforge.net/DTD/sodipodi-0.dtd"
    xmlns="http://www.w3.org/2000/svg"
    xmlns:svg="http://www.w3.org/2000/svg">
    <defs id="defs1">
      <clipPath clipPathUnits="userSpaceOnUse" id="clipPath307">
        <path d="M 0,5035.667 H 1366 V 0 H 0 Z" transform="translate(-1289.5533,-4480.8438)" id="path307" />
      </clipPath>
      <clipPath clipPathUnits="userSpaceOnUse" id="clipPath309">
        <path d="M 0,5035.667 H 1366 V 0 H 0 Z" transform="translate(-1264.5984,-4424.274)" id="path309" />
      </clipPath>
      <clipPath clipPathUnits="userSpaceOnUse" id="clipPath311">
        <path d="M 0,5035.667 H 1366 V 0 H 0 Z" transform="translate(-1273.2483,-4457.0973)" id="path311" />
      </clipPath>
      <clipPath clipPathUnits="userSpaceOnUse" id="clipPath313">
        <path d="M 0,5035.667 H 1366 V 0 H 0 Z" transform="translate(-1273.2483,-4457.0973)" id="path313" />
      </clipPath>
    </defs>
    <sodipodi:namedview id="namedview1" pagecolor="#505050" bordercolor="#eeeeee" borderopacity="1" inkscape:showpageshadow="0" inkscape:pageopacity="0" inkscape:pagecheckerboard="0" inkscape:deskcolor="#505050" showgrid="false" inkscape:zoom="0.48434469" inkscape:cx="-6000.8916" inkscape:cy="1484.48" inkscape:window-width="1723" inkscape:window-height="1032" inkscape:window-x="1542" inkscape:window-y="0" inkscape:window-maximized="0" inkscape:current-layer="layer-MC0">
      <inkscape:page x="-0.00036742093" y="-3.2921662e-06" width="127.78559" height="127.80237" id="page2" margin="0" bleed="0" />
    </sodipodi:namedview>
    <g id="layer-MC0" inkscape:groupmode="layer" inkscape:label="Capa 1" transform="matrix(0.99990922,0,0,0.99990922,-606.08421,277.65613)">
      <g id="g2924">
        <path id="path2917" d="m 0,0 c -5.631,0.154 -10.851,-1.242 -15.651,-4.04 -9.763,-5.689 -15.123,-14.262 -16.127,-25.489 -0.515,-5.752 0.781,-11.224 3.371,-16.349 0.638,-1.263 0.621,-2.292 0.182,-3.536 -1.182,-3.348 -2.271,-6.728 -3.414,-10.09 -0.362,-1.063 -0.318,-2.154 0.584,-2.783 0.708,-0.493 1.807,-0.908 2.589,-0.73 3.189,0.731 6.351,1.614 9.467,2.616 2.192,0.706 4.099,0.811 6.35,-0.217 6.468,-2.952 13.303,-3.444 20.177,-1.683 13.169,3.374 22.777,14.568 23.86,28.405 0.524,6.702 -0.999,12.973 -4.565,18.651 C 20.627,-5.377 11.612,-0.357 0,0 m -48.68,-30.031 c 0.612,25.998 22.64,46.737 48.729,46.292 25.922,-0.441 48.971,-22.257 46.97,-51.654 -1.586,-23.303 -21.457,-45.946 -51.352,-44.093 -24.256,1.504 -45.241,22.173 -44.347,49.455" style="fill:#25d366;fill-opacity:1;fill-rule:nonzero;stroke:none" transform="matrix(1.3333333,0,0,-1.3333333,671.0832,-255.99064)" clip-path="url(#clipPath307)" />
        <path id="path2918" d="M 0,0 C 2.153,0.624 4.022,1.086 5.835,1.711 8.458,2.615 10.788,2.725 13.489,1.338 19.948,-1.979 26.78,-2.187 33.641,0.255 47.352,5.138 54.196,19.778 49.651,33.432 44.727,48.225 27.804,55.401 13.736,48.838 -0.717,42.094 -5.501,24.839 2.086,11.744 3.005,10.159 3.026,8.796 2.414,7.176 1.558,4.91 0.86,2.585 0,0 M 24.955,56.57 C 36.567,56.213 45.582,51.193 51.778,41.325 55.344,35.646 56.867,29.375 56.343,22.674 55.26,8.837 45.652,-2.357 32.483,-5.731 25.609,-7.492 18.774,-7 12.306,-4.048 c -2.251,1.027 -4.158,0.923 -6.35,0.217 -3.116,-1.002 -6.278,-1.885 -9.467,-2.616 -0.782,-0.178 -1.881,0.237 -2.589,0.73 -0.902,0.629 -0.946,1.719 -0.584,2.783 1.142,3.362 2.232,6.742 3.414,10.09 0.439,1.243 0.456,2.273 -0.182,3.535 -2.59,5.126 -3.886,10.598 -3.371,16.35 1.004,11.227 6.364,19.799 16.127,25.489 4.8,2.798 10.02,4.194 15.651,4.04" style="fill:#ffffff;fill-opacity:1;fill-rule:nonzero;stroke:none" transform="matrix(1.3333333,0,0,-1.3333333,637.81,-180.56424)" clip-path="url(#clipPath309)" />
        <path id="path2919" d="m 0,0 c -0.005,-2.585 0.784,-4.557 1.983,-6.343 4.744,-7.065 11.01,-12.356 18.963,-15.405 4.525,-1.735 8.132,-0.455 10.759,3.681 1.083,1.704 0.407,3.642 -1.44,4.509 -1.294,0.608 -2.619,1.15 -3.944,1.688 -3.017,1.227 -3.078,1.271 -5.252,-1.091 -0.949,-1.032 -1.82,-1.157 -2.85,-0.378 -2.277,1.724 -4.632,3.37 -6.747,5.279 -2.706,2.441 -2.617,2.538 -0.508,5.54 0.132,0.188 0.35,0.377 0.364,0.578 0.042,0.602 0.222,1.334 -0.041,1.792 C 10.207,1.729 9.045,3.571 7.792,5.339 6.759,6.796 4.813,7.137 3.495,6.113 1.398,4.483 0.133,2.349 0,0 m -8.65,-32.823 c 0.861,2.585 1.558,4.91 2.414,7.176 0.613,1.62 0.591,2.983 -0.328,4.568 -7.587,13.095 -2.803,30.35 11.651,37.094 14.067,6.563 30.99,-0.614 35.914,-15.406 4.545,-13.654 -2.299,-28.295 -16.01,-33.177 -6.861,-2.442 -13.692,-2.234 -20.152,1.083 -2.701,1.386 -5.031,1.277 -7.654,0.373 -1.813,-0.625 -3.682,-1.087 -5.835,-1.711" style="fill:#25d366;fill-opacity:1;fill-rule:nonzero;stroke:none" transform="matrix(1.3333333,0,0,-1.3333333,649.3432,-224.32864)" clip-path="url(#clipPath311)" />
        <path id="path2920" d="m 0,0 c 0.133,2.349 1.398,4.483 3.495,6.113 1.318,1.024 3.264,0.683 4.297,-0.774 1.253,-1.768 2.415,-3.61 3.495,-5.489 0.263,-0.458 0.083,-1.19 0.041,-1.792 -0.014,-0.201 -0.232,-0.39 -0.364,-0.578 -2.109,-3.002 -2.198,-3.099 0.508,-5.54 2.115,-1.909 4.47,-3.555 6.747,-5.279 1.03,-0.779 1.901,-0.654 2.85,0.378 2.174,2.362 2.235,2.318 5.252,1.091 1.325,-0.538 2.65,-1.08 3.944,-1.688 1.847,-0.867 2.523,-2.805 1.44,-4.509 -2.627,-4.136 -6.234,-5.416 -10.759,-3.681 -7.953,3.049 -14.219,8.34 -18.963,15.405 C 0.784,-4.557 -0.005,-2.585 0,0" style="fill:#ffffff;fill-opacity:1;fill-rule:nonzero;stroke:none" transform="matrix(1.3333333,0,0,-1.3333333,649.3432,-224.32864)" clip-path="url(#clipPath313)" />
        <path id="path2921" d="m 0,0 c -5.631,0.154 -10.851,-1.242 -15.651,-4.04 -9.763,-5.689 -15.123,-14.262 -16.127,-25.489 -0.515,-5.752 0.781,-11.224 3.371,-16.349 0.638,-1.263 0.621,-2.292 0.182,-3.536 -1.182,-3.348 -2.271,-6.728 -3.414,-10.09 -0.362,-1.063 -0.318,-2.154 0.584,-2.783 0.708,-0.493 1.807,-0.908 2.589,-0.73 3.189,0.731 6.351,1.614 9.467,2.616 2.192,0.706 4.099,0.811 6.35,-0.217 6.468,-2.952 13.303,-3.444 20.177,-1.683 13.169,3.374 22.777,14.568 23.86,28.405 0.524,6.702 -0.999,12.973 -4.565,18.651 C 20.627,-5.377 11.612,-0.357 0,0 m -48.68,-30.031 c 0.612,25.998 22.64,46.737 48.729,46.292 25.922,-0.441 48.971,-22.257 46.97,-51.654 -1.586,-23.303 -21.457,-45.946 -51.352,-44.093 -24.256,1.504 -45.241,22.173 -44.347,49.455" style="fill:#25d366;fill-opacity:1;fill-rule:nonzero;stroke:none" transform="matrix(1.3333333,0,0,-1.3333333,671.0832,-255.99064)" clip-path="url(#clipPath307)" />
        <path id="path2922" d="M 0,0 C 2.153,0.624 4.022,1.086 5.835,1.711 8.458,2.615 10.788,2.725 13.489,1.338 19.948,-1.979 26.78,-2.187 33.641,0.255 47.352,5.138 54.196,19.778 49.651,33.432 44.727,48.225 27.804,55.401 13.736,48.838 -0.717,42.094 -5.501,24.839 2.086,11.744 3.005,10.159 3.026,8.796 2.414,7.176 1.558,4.91 0.86,2.585 0,0 M 24.955,56.57 C 36.567,56.213 45.582,51.193 51.778,41.325 55.344,35.646 56.867,29.375 56.343,22.674 55.26,8.837 45.652,-2.357 32.483,-5.731 25.609,-7.492 18.774,-7 12.306,-4.048 c -2.251,1.027 -4.158,0.923 -6.35,0.217 -3.116,-1.002 -6.278,-1.885 -9.467,-2.616 -0.782,-0.178 -1.881,0.237 -2.589,0.73 -0.902,0.629 -0.946,1.719 -0.584,2.783 1.142,3.362 2.232,6.742 3.414,10.09 0.439,1.243 0.456,2.273 -0.182,3.535 -2.59,5.126 -3.886,10.598 -3.371,16.35 1.004,11.227 6.364,19.799 16.127,25.489 4.8,2.798 10.02,4.194 15.651,4.04" style="fill:#ffffff;fill-opacity:1;fill-rule:nonzero;stroke:none" transform="matrix(1.3333333,0,0,-1.3333333,637.81,-180.56424)" clip-path="url(#clipPath309)" />
        <path id="path2923" d="m 0,0 c -0.005,-2.585 0.784,-4.557 1.983,-6.343 4.744,-7.065 11.01,-12.356 18.963,-15.405 4.525,-1.735 8.132,-0.455 10.759,3.681 1.083,1.704 0.407,3.642 -1.44,4.509 -1.294,0.608 -2.619,1.15 -3.944,1.688 -3.017,1.227 -3.078,1.271 -5.252,-1.091 -0.949,-1.032 -1.82,-1.157 -2.85,-0.378 -2.277,1.724 -4.632,3.37 -6.747,5.279 -2.706,2.441 -2.617,2.538 -0.508,5.54 0.132,0.188 0.35,0.377 0.364,0.578 0.042,0.602 0.222,1.334 -0.041,1.792 C 10.207,1.729 9.045,3.571 7.792,5.339 6.759,6.796 4.813,7.137 3.495,6.113 1.398,4.483 0.133,2.349 0,0 m -8.65,-32.823 c 0.861,2.585 1.558,4.91 2.414,7.176 0.613,1.62 0.591,2.983 -0.328,4.568 -7.587,13.095 -2.803,30.35 11.651,37.094 14.067,6.563 30.99,-0.614 35.914,-15.406 4.545,-13.654 -2.299,-28.295 -16.01,-33.177 -6.861,-2.442 -13.692,-2.234 -20.152,1.083 -2.701,1.386 -5.031,1.277 -7.654,0.373 -1.813,-0.625 -3.682,-1.087 -5.835,-1.711" style="fill:#25d366;fill-opacity:1;fill-rule:nonzero;stroke:none" transform="matrix(1.3333333,0,0,-1.3333333,649.3432,-224.32864)" clip-path="url(#clipPath311)" />
        <path id="path2924" d="m 0,0 c 0.133,2.349 1.398,4.483 3.495,6.113 1.318,1.024 3.264,0.683 4.297,-0.774 1.253,-1.768 2.415,-3.61 3.495,-5.489 0.263,-0.458 0.083,-1.19 0.041,-1.792 -0.014,-0.201 -0.232,-0.39 -0.364,-0.578 -2.109,-3.002 -2.198,-3.099 0.508,-5.54 2.115,-1.909 4.47,-3.555 6.747,-5.279 1.03,-0.779 1.901,-0.654 2.85,0.378 2.174,2.362 2.235,2.318 5.252,1.091 1.325,-0.538 2.65,-1.08 3.944,-1.688 1.847,-0.867 2.523,-2.805 1.44,-4.509 -2.627,-4.136 -6.234,-5.416 -10.759,-3.681 -7.953,3.049 -14.219,8.34 -18.963,15.405 C 0.784,-4.557 -0.005,-2.585 0,0" style="fill:#ffffff;fill-opacity:1;fill-rule:nonzero;stroke:none" transform="matrix(1.3333333,0,0,-1.3333333,649.3432,-224.32864)" clip-path="url(#clipPath313)" />
      </g>
    </g>
  </symbol>
</svg>